<svg xmlns="http://www.w3.org/2000/svg" width="512" height="342" viewBox="0 0 512 342" fill="none"><g clip-path="url(#clip0_7918_971)"><path d="M317.518 281.286H446.533C448.998 281.286 451.362 280.307 453.105 278.564C454.848 276.821 455.828 274.457 455.828 271.991V33.295C455.828 30.8298 454.848 28.4656 453.105 26.7224C451.362 24.9793 448.998 24 446.533 24H73.2442C70.7791 24 68.4148 24.9793 66.6717 26.7224C64.9285 28.4656 63.9492 30.8298 63.9492 33.295V271.991C63.9492 274.457 64.9285 276.821 66.6717 278.564C68.4148 280.307 70.7791 281.286 73.2442 281.286H202.259" fill="#7FADF6"></path><path d="M446.585 34.7822H71.8096V254.145H446.585V34.7822Z" fill="#E5EEFD"></path><path d="M317.198 281.658H201.939V307.647H317.198V281.658Z" fill="#BFD6FA"></path><path d="M317.198 307.647H337.275V317.567H181.862V307.647H201.94" fill="#7FADF6"></path><path d="M127.855 104.309H98.6689V65.3965H121.602L127.855 71.5089V104.309Z" fill="white" stroke="#263238" stroke-linecap="round" stroke-linejoin="round"></path><path d="M122.39 70.8691V72.4604L127.855 71.5161L122.39 70.8691Z" fill="#263238" stroke="#263238" stroke-linecap="round" stroke-linejoin="round"></path><path d="M121.602 65.3965V71.5163H127.855L121.602 65.3965Z" fill="white" stroke="#263238" stroke-linecap="round" stroke-linejoin="round"></path><path d="M102.38 73.8516H124.844" stroke="#263238" stroke-linecap="round" stroke-linejoin="round"></path><path d="M102.38 79.4131H124.844" stroke="#263238" stroke-linecap="round" stroke-linejoin="round"></path><path d="M102.38 84.9678H124.844" stroke="#263238" stroke-linecap="round" stroke-linejoin="round"></path><path d="M102.38 90.5303H124.844" stroke="#263238" stroke-linecap="round" stroke-linejoin="round"></path><path d="M102.38 96.085H124.844" stroke="#263238" stroke-linecap="round" stroke-linejoin="round"></path><path d="M45.4346 151.335H55.8896" stroke="#263238" stroke-linecap="round" stroke-linejoin="round"></path><path d="M33.8789 151.335H43.5532" stroke="#263238" stroke-linecap="round" stroke-linejoin="round"></path><path d="M51.8447 154.636H55.8899" stroke="#263238" stroke-linecap="round" stroke-linejoin="round"></path><path d="M33.8789 154.636H49.963" stroke="#263238" stroke-linecap="round" stroke-linejoin="round"></path><path d="M54.2979 157.938H55.8892" stroke="#263238" stroke-linecap="round" stroke-linejoin="round"></path><path d="M45.6201 157.938H51.6582" stroke="#263238" stroke-linecap="round" stroke-linejoin="round"></path><path d="M33.8789 157.938H43.925" stroke="#263238" stroke-linecap="round" stroke-linejoin="round"></path><path d="M33.8789 161.239H55.8895" stroke="#263238" stroke-linecap="round" stroke-linejoin="round"></path><path d="M52.2236 164.541H55.8896" stroke="#263238" stroke-linecap="round" stroke-linejoin="round"></path><path d="M39.5898 164.541H48.4536" stroke="#263238" stroke-linecap="round" stroke-linejoin="round"></path><path d="M33.8789 164.541H36.95" stroke="#263238" stroke-linecap="round" stroke-linejoin="round"></path><path d="M43.9248 167.843H55.8894" stroke="#263238" stroke-linecap="round" stroke-linejoin="round"></path><path d="M33.8789 167.843H41.8503" stroke="#263238" stroke-linecap="round" stroke-linejoin="round"></path><path d="M49.9629 171.145H55.8894" stroke="#263238" stroke-linecap="round" stroke-linejoin="round"></path><path d="M44.1182 171.145H48.26" stroke="#263238" stroke-linecap="round" stroke-linejoin="round"></path><path d="M33.8789 171.145H41.8503" stroke="#263238" stroke-linecap="round" stroke-linejoin="round"></path><path d="M112.455 195.713H88.3848V163.619H107.295L112.455 168.653V195.713Z" fill="#7FADF6" stroke="#263238" stroke-linecap="round" stroke-linejoin="round"></path><path d="M107.941 168.133V169.442L112.455 168.661L107.941 168.133Z" fill="#263238" stroke="#263238" stroke-linecap="round" stroke-linejoin="round"></path><path d="M107.295 163.619V168.661H112.456L107.295 163.619Z" fill="white" stroke="#263238" stroke-linecap="round" stroke-linejoin="round"></path><path d="M91.4414 170.587H109.972" stroke="#263238" stroke-linecap="round" stroke-linejoin="round"></path><path d="M91.4414 175.175H109.972" stroke="#263238" stroke-linecap="round" stroke-linejoin="round"></path><path d="M91.4414 179.763H109.972" stroke="#263238" stroke-linecap="round" stroke-linejoin="round"></path><path d="M91.4414 184.343H109.972" stroke="#263238" stroke-linecap="round" stroke-linejoin="round"></path><path d="M91.4414 188.932H109.972" stroke="#263238" stroke-linecap="round" stroke-linejoin="round"></path><path d="M87.1503 107.908H57.9639V68.9951H80.8966L87.1503 75.1001V107.908Z" fill="#7FADF6" stroke="#263238" stroke-linecap="round" stroke-linejoin="round"></path><path d="M81.6777 74.4688V76.0601L87.1506 75.1082L81.6777 74.4688Z" fill="#263238" stroke="#263238" stroke-linecap="round" stroke-linejoin="round"></path><path d="M80.8965 68.9951V75.1075H87.1502L80.8965 68.9951Z" fill="white" stroke="#263238" stroke-linecap="round" stroke-linejoin="round"></path><path d="M61.667 77.4502H84.1387" stroke="#263238" stroke-linecap="round" stroke-linejoin="round"></path><path d="M61.667 83.0049H84.1387" stroke="#263238" stroke-linecap="round" stroke-linejoin="round"></path><path d="M61.667 88.5674H84.1387" stroke="#263238" stroke-linecap="round" stroke-linejoin="round"></path><path d="M61.667 94.1289H84.1387" stroke="#263238" stroke-linecap="round" stroke-linejoin="round"></path><path d="M61.667 99.6836H84.1387" stroke="#263238" stroke-linecap="round" stroke-linejoin="round"></path><path d="M149.658 125.71H120.472V86.79H143.404L149.658 92.9025V125.71Z" fill="#7FADF6" stroke="#263238" stroke-linecap="round" stroke-linejoin="round"></path><path d="M144.192 92.2627V93.8614L149.658 92.9096L144.192 92.2627Z" fill="#263238" stroke="#263238" stroke-linecap="round" stroke-linejoin="round"></path><path d="M143.404 86.79V92.9099H149.658L143.404 86.79Z" fill="white" stroke="#263238" stroke-linecap="round" stroke-linejoin="round"></path><path d="M124.182 95.252H146.646" stroke="#263238" stroke-linecap="round" stroke-linejoin="round"></path><path d="M124.182 100.807H146.646" stroke="#263238" stroke-linecap="round" stroke-linejoin="round"></path><path d="M124.182 106.369H146.646" stroke="#263238" stroke-linecap="round" stroke-linejoin="round"></path><path d="M124.182 111.924H146.646" stroke="#263238" stroke-linecap="round" stroke-linejoin="round"></path><path d="M124.182 117.485H146.646" stroke="#263238" stroke-linecap="round" stroke-linejoin="round"></path><path d="M188.816 168.839H159.63V129.919H182.563L188.816 136.031V168.839Z" fill="white" stroke="#263238" stroke-linecap="round" stroke-linejoin="round"></path><path d="M183.351 135.392V136.99L188.816 136.039L183.351 135.392Z" fill="#263238" stroke="#263238" stroke-linecap="round" stroke-linejoin="round"></path><path d="M182.562 129.919V136.039H188.816L182.562 129.919Z" fill="white" stroke="#263238" stroke-linecap="round" stroke-linejoin="round"></path><path d="M163.34 138.381H185.804" stroke="#263238" stroke-linecap="round" stroke-linejoin="round"></path><path d="M163.34 143.936H185.804" stroke="#263238" stroke-linecap="round" stroke-linejoin="round"></path><path d="M163.34 149.498H185.804" stroke="#263238" stroke-linecap="round" stroke-linejoin="round"></path><path d="M163.34 155.053H185.804" stroke="#263238" stroke-linecap="round" stroke-linejoin="round"></path><path d="M163.34 160.615H185.804" stroke="#263238" stroke-linecap="round" stroke-linejoin="round"></path><path d="M107.369 97.8691H75.253C71.717 97.8691 68.8506 100.736 68.8506 104.272V142.448C68.8506 145.984 71.717 148.851 75.253 148.851H107.369C110.905 148.851 113.772 145.984 113.772 142.448V104.272C113.772 100.736 110.905 97.8691 107.369 97.8691Z" fill="white" stroke="#263238" stroke-linecap="round" stroke-linejoin="round"></path><path d="M108.775 97.8691H73.8255C72.5022 97.8691 71.2331 98.3948 70.2974 99.3306C69.3616 100.266 68.8359 101.535 68.8359 102.859V103.937H113.75V102.866C113.751 101.544 113.229 100.275 112.296 99.3384C111.363 98.4015 110.097 97.8731 108.775 97.8691Z" fill="#002E77" stroke="#263238" stroke-linecap="round" stroke-linejoin="round"></path><path d="M75.2676 112.846H107.347" stroke="#263238" stroke-linecap="round" stroke-linejoin="round"></path><path d="M75.2676 120.684H107.347" stroke="#263238" stroke-linecap="round" stroke-linejoin="round"></path><path d="M75.2676 128.528H107.347" stroke="#263238" stroke-linecap="round" stroke-linejoin="round"></path><path d="M75.2676 136.373H107.347" stroke="#263238" stroke-linecap="round" stroke-linejoin="round"></path><path d="M102.298 100.725C102.298 100.442 102.214 100.166 102.057 99.9314C101.9 99.6966 101.677 99.5136 101.416 99.4056C101.156 99.2975 100.869 99.2692 100.592 99.3243C100.315 99.3794 100.06 99.5154 99.8605 99.715C99.6609 99.9147 99.5249 100.169 99.4698 100.446C99.4147 100.723 99.443 101.01 99.5511 101.271C99.6591 101.532 99.8421 101.755 100.077 101.912C100.312 102.069 100.588 102.152 100.87 102.152C101.249 102.152 101.612 102.002 101.88 101.734C102.147 101.466 102.298 101.103 102.298 100.725Z" fill="white"></path><path d="M107.027 100.725C107.027 100.442 106.944 100.166 106.787 99.9314C106.63 99.6966 106.407 99.5136 106.146 99.4056C105.885 99.2975 105.598 99.2692 105.321 99.3243C105.044 99.3794 104.79 99.5154 104.59 99.715C104.39 99.9147 104.254 100.169 104.199 100.446C104.144 100.723 104.172 101.01 104.281 101.271C104.389 101.532 104.572 101.755 104.806 101.912C105.041 102.069 105.317 102.152 105.6 102.152C105.978 102.152 106.341 102.002 106.609 101.734C106.877 101.466 107.027 101.103 107.027 100.725Z" fill="white"></path><path d="M111.72 100.725C111.72 100.442 111.636 100.166 111.479 99.9306C111.321 99.6957 111.098 99.5127 110.837 99.4048C110.575 99.297 110.288 99.2692 110.011 99.3249C109.734 99.3806 109.479 99.5173 109.28 99.7177C109.08 99.9181 108.945 100.173 108.891 100.451C108.837 100.728 108.866 101.015 108.975 101.276C109.084 101.537 109.268 101.759 109.504 101.915C109.74 102.071 110.017 102.154 110.299 102.152C110.487 102.152 110.672 102.115 110.845 102.043C111.017 101.972 111.174 101.866 111.306 101.734C111.438 101.601 111.543 101.444 111.614 101.27C111.685 101.097 111.721 100.912 111.72 100.725Z" fill="white"></path><path d="M76.584 139.615H58.2393C54.7034 139.615 51.8369 142.482 51.8369 146.018V168.564C51.8369 172.1 54.7034 174.966 58.2393 174.966H76.584C80.12 174.966 82.9864 172.1 82.9864 168.564V146.018C82.9864 142.482 80.12 139.615 76.584 139.615Z" fill="white" stroke="#263238" stroke-linecap="round" stroke-linejoin="round"></path><path d="M79.5212 139.63H55.2947C54.3776 139.63 53.4981 139.994 52.8497 140.643C52.2012 141.291 51.8369 142.171 51.8369 143.088V143.831H82.9641V143.088C82.9641 142.173 82.6019 141.296 81.9566 140.648C81.3114 140 80.4357 139.634 79.5212 139.63Z" fill="#002E77" stroke="#263238" stroke-linecap="round" stroke-linejoin="round"></path><path d="M56.2832 149.996H78.5318" stroke="#263238" stroke-linecap="round" stroke-linejoin="round"></path><path d="M56.2832 155.432H78.5318" stroke="#263238" stroke-linecap="round" stroke-linejoin="round"></path><path d="M56.2832 160.875H78.5318" stroke="#263238" stroke-linecap="round" stroke-linejoin="round"></path><path d="M56.2832 166.311H78.5318" stroke="#263238" stroke-linecap="round" stroke-linejoin="round"></path><path d="M74.0632 142.575C74.6094 142.575 75.0522 142.132 75.0522 141.586C75.0522 141.039 74.6094 140.597 74.0632 140.597C73.517 140.597 73.0742 141.039 73.0742 141.586C73.0742 142.132 73.517 142.575 74.0632 142.575Z" fill="white"></path><path d="M77.32 142.575C77.8663 142.575 78.309 142.132 78.309 141.586C78.309 141.039 77.8663 140.597 77.32 140.597C76.7738 140.597 76.3311 141.039 76.3311 141.586C76.3311 142.132 76.7738 142.575 77.32 142.575Z" fill="white"></path><path d="M81.5659 141.586C81.5659 141.39 81.5079 141.199 81.3992 141.036C81.2905 140.874 81.1361 140.747 80.9554 140.672C80.7746 140.597 80.5758 140.578 80.3839 140.616C80.1921 140.654 80.0159 140.748 79.8776 140.886C79.7393 141.025 79.6451 141.201 79.6069 141.393C79.5687 141.585 79.5883 141.783 79.6632 141.964C79.738 142.145 79.8648 142.299 80.0274 142.408C80.1901 142.517 80.3813 142.575 80.5769 142.575C80.7068 142.575 80.8354 142.549 80.9554 142.499C81.0753 142.45 81.1844 142.377 81.2762 142.285C81.368 142.193 81.4409 142.084 81.4906 141.964C81.5403 141.844 81.5659 141.716 81.5659 141.586Z" fill="white"></path><path d="M67.2441 185.607H77.6992" stroke="#263238" stroke-linecap="round" stroke-linejoin="round"></path><path d="M55.6816 185.607H65.3559" stroke="#263238" stroke-linecap="round" stroke-linejoin="round"></path><path d="M73.6543 188.909H77.6995" stroke="#263238" stroke-linecap="round" stroke-linejoin="round"></path><path d="M55.6816 188.909H71.7658" stroke="#263238" stroke-linecap="round" stroke-linejoin="round"></path><path d="M76.1084 192.21H77.6997" stroke="#263238" stroke-linecap="round" stroke-linejoin="round"></path><path d="M67.4307 192.21H73.4687" stroke="#263238" stroke-linecap="round" stroke-linejoin="round"></path><path d="M55.6816 192.21H65.7351" stroke="#263238" stroke-linecap="round" stroke-linejoin="round"></path><path d="M55.6816 195.512H77.6997" stroke="#263238" stroke-linecap="round" stroke-linejoin="round"></path><path d="M74.0332 198.813H77.6992" stroke="#263238" stroke-linecap="round" stroke-linejoin="round"></path><path d="M61.3994 198.813H70.2632" stroke="#263238" stroke-linecap="round" stroke-linejoin="round"></path><path d="M55.6816 198.813H58.7602" stroke="#263238" stroke-linecap="round" stroke-linejoin="round"></path><path d="M65.7344 202.115H77.6989" stroke="#263238" stroke-linecap="round" stroke-linejoin="round"></path><path d="M55.6816 202.115H63.6605" stroke="#263238" stroke-linecap="round" stroke-linejoin="round"></path><path d="M71.7656 205.417H77.6996" stroke="#263238" stroke-linecap="round" stroke-linejoin="round"></path><path d="M65.9209 205.417H70.0702" stroke="#263238" stroke-linecap="round" stroke-linejoin="round"></path><path d="M55.6816 205.417H63.6605" stroke="#263238" stroke-linecap="round" stroke-linejoin="round"></path><path d="M141.158 181.168H151.613" stroke="#263238" stroke-linecap="round" stroke-linejoin="round"></path><path d="M129.596 181.168H139.27" stroke="#263238" stroke-linecap="round" stroke-linejoin="round"></path><path d="M147.568 184.477H151.614" stroke="#263238" stroke-linecap="round" stroke-linejoin="round"></path><path d="M129.596 184.477H145.68" stroke="#263238" stroke-linecap="round" stroke-linejoin="round"></path><path d="M150.015 187.778H151.613" stroke="#263238" stroke-linecap="round" stroke-linejoin="round"></path><path d="M141.345 187.778H147.375" stroke="#263238" stroke-linecap="round" stroke-linejoin="round"></path><path d="M129.596 187.778H139.649" stroke="#263238" stroke-linecap="round" stroke-linejoin="round"></path><path d="M129.596 191.08H151.614" stroke="#263238" stroke-linecap="round" stroke-linejoin="round"></path><path d="M147.94 194.382H151.614" stroke="#263238" stroke-linecap="round" stroke-linejoin="round"></path><path d="M135.313 194.382H144.17" stroke="#263238" stroke-linecap="round" stroke-linejoin="round"></path><path d="M129.596 194.382H132.674" stroke="#263238" stroke-linecap="round" stroke-linejoin="round"></path><path d="M139.648 197.684H151.613" stroke="#263238" stroke-linecap="round" stroke-linejoin="round"></path><path d="M129.596 197.684H137.575" stroke="#263238" stroke-linecap="round" stroke-linejoin="round"></path><path d="M145.68 200.985H151.614" stroke="#263238" stroke-linecap="round" stroke-linejoin="round"></path><path d="M139.835 200.985H143.984" stroke="#263238" stroke-linecap="round" stroke-linejoin="round"></path><path d="M129.596 200.985H137.575" stroke="#263238" stroke-linecap="round" stroke-linejoin="round"></path><path d="M165.615 106.272H176.07" stroke="#263238" stroke-linecap="round" stroke-linejoin="round"></path><path d="M154.053 106.272H163.727" stroke="#263238" stroke-linecap="round" stroke-linejoin="round"></path><path d="M172.025 109.574H176.071" stroke="#263238" stroke-linecap="round" stroke-linejoin="round"></path><path d="M154.053 109.574H170.137" stroke="#263238" stroke-linecap="round" stroke-linejoin="round"></path><path d="M174.479 112.876H176.071" stroke="#263238" stroke-linecap="round" stroke-linejoin="round"></path><path d="M165.802 112.876H171.84" stroke="#263238" stroke-linecap="round" stroke-linejoin="round"></path><path d="M154.053 112.876H164.106" stroke="#263238" stroke-linecap="round" stroke-linejoin="round"></path><path d="M154.053 116.177H176.071" stroke="#263238" stroke-linecap="round" stroke-linejoin="round"></path><path d="M172.404 119.479H176.07" stroke="#263238" stroke-linecap="round" stroke-linejoin="round"></path><path d="M159.771 119.479H168.634" stroke="#263238" stroke-linecap="round" stroke-linejoin="round"></path><path d="M154.053 119.479H157.131" stroke="#263238" stroke-linecap="round" stroke-linejoin="round"></path><path d="M164.106 122.78H176.071" stroke="#263238" stroke-linecap="round" stroke-linejoin="round"></path><path d="M154.053 122.78H162.032" stroke="#263238" stroke-linecap="round" stroke-linejoin="round"></path><path d="M170.137 126.082H176.071" stroke="#263238" stroke-linecap="round" stroke-linejoin="round"></path><path d="M164.292 126.082H168.441" stroke="#263238" stroke-linecap="round" stroke-linejoin="round"></path><path d="M154.053 126.082H162.032" stroke="#263238" stroke-linecap="round" stroke-linejoin="round"></path><path d="M50.9072 113.73H61.3623" stroke="#263238" stroke-linecap="round" stroke-linejoin="round"></path><path d="M39.3516 113.73H49.0184" stroke="#263238" stroke-linecap="round" stroke-linejoin="round"></path><path d="M57.3174 117.032H61.3626" stroke="#263238" stroke-linecap="round" stroke-linejoin="round"></path><path d="M39.3516 117.032H55.4357" stroke="#263238" stroke-linecap="round" stroke-linejoin="round"></path><path d="M59.7715 120.334H61.3628" stroke="#263238" stroke-linecap="round" stroke-linejoin="round"></path><path d="M51.0938 120.334H57.1318" stroke="#263238" stroke-linecap="round" stroke-linejoin="round"></path><path d="M39.3516 120.334H49.3976" stroke="#263238" stroke-linecap="round" stroke-linejoin="round"></path><path d="M39.3516 123.636H61.3622" stroke="#263238" stroke-linecap="round" stroke-linejoin="round"></path><path d="M57.6963 126.938H61.3622" stroke="#263238" stroke-linecap="round" stroke-linejoin="round"></path><path d="M45.0625 126.938H53.9262" stroke="#263238" stroke-linecap="round" stroke-linejoin="round"></path><path d="M39.3516 126.938H42.4226" stroke="#263238" stroke-linecap="round" stroke-linejoin="round"></path><path d="M49.3975 130.238H61.362" stroke="#263238" stroke-linecap="round" stroke-linejoin="round"></path><path d="M39.3516 130.238H47.323" stroke="#263238" stroke-linecap="round" stroke-linejoin="round"></path><path d="M55.4355 133.54H61.3621" stroke="#263238" stroke-linecap="round" stroke-linejoin="round"></path><path d="M49.5908 133.54H53.7327" stroke="#263238" stroke-linecap="round" stroke-linejoin="round"></path><path d="M39.3516 133.54H47.323" stroke="#263238" stroke-linecap="round" stroke-linejoin="round"></path><path d="M116.292 139.89V172.698H145.478V133.785H122.553L116.292 139.89Z" fill="white" stroke="#263238" stroke-linecap="round" stroke-linejoin="round"></path><path d="M121.765 139.259V140.85L116.292 139.906L121.765 139.259Z" fill="#263238" stroke="#263238" stroke-linecap="round" stroke-linejoin="round"></path><path d="M122.546 133.785V139.905H116.292L122.546 133.785Z" fill="white" stroke="#263238" stroke-linecap="round" stroke-linejoin="round"></path><path d="M141.775 142.24H119.304" stroke="#263238" stroke-linecap="round" stroke-linejoin="round"></path><path d="M141.775 147.795H119.304" stroke="#263238" stroke-linecap="round" stroke-linejoin="round"></path><path d="M141.775 153.357H119.304" stroke="#263238" stroke-linecap="round" stroke-linejoin="round"></path><path d="M141.775 158.919H119.304" stroke="#263238" stroke-linecap="round" stroke-linejoin="round"></path><path d="M145.478 163.619H116.292V172.706H145.478V163.619Z" fill="#002E77" stroke="#263238" stroke-linecap="round" stroke-linejoin="round"></path><path d="M149.985 142.441H129.789V152.168H149.985V142.441Z" fill="#002E77" stroke="#263238" stroke-linecap="round" stroke-linejoin="round"></path><path d="M138.08 143.816C139.114 143.816 139.567 144.426 139.567 145.415V146.203C139.6 146.41 139.585 146.622 139.523 146.822C139.462 147.022 139.355 147.205 139.211 147.357C139.068 147.51 138.891 147.627 138.695 147.7C138.499 147.773 138.288 147.801 138.08 147.78H137.433V150.368H136.689V143.816H138.08ZM138.028 147.125C138.571 147.125 138.831 146.873 138.831 146.248V145.378C138.831 144.783 138.615 144.478 138.087 144.478H137.388V147.125H138.028Z" fill="white"></path><path d="M141.709 143.816C142.728 143.816 143.196 144.434 143.196 145.445V148.746C143.196 149.75 142.728 150.368 141.709 150.368H140.147V143.816H141.709ZM141.709 149.698C142.23 149.698 142.453 149.371 142.453 148.776V145.408C142.453 144.805 142.2 144.478 141.672 144.478H140.884V149.683L141.709 149.698Z" fill="white"></path><path d="M146.081 146.865V147.527H144.594V150.368H143.851V143.816H146.453V144.478H144.579V146.865H146.081Z" fill="white"></path><path opacity="0.2" d="M494.978 170.266L489.833 170.14L489.758 173.069C488.492 173.202 487.245 173.476 486.04 173.887L484.59 171.233L480.047 173.702L481.445 176.267C480.409 177.027 479.459 177.897 478.612 178.862L476.031 177.278L473.354 181.673L475.845 183.16C475.327 184.336 474.94 185.565 474.693 186.826L471.666 186.744L471.54 191.897L474.47 191.972C474.602 193.238 474.877 194.485 475.288 195.69L472.611 197.199L475.072 201.728L477.645 200.33C478.4 201.365 479.268 202.313 480.233 203.156L478.656 205.743L483.051 208.428L484.575 205.937C485.749 206.454 486.976 206.841 488.234 207.089L488.16 210.116L493.313 210.242L493.432 207.297C494.698 207.165 495.945 206.891 497.15 206.479L498.592 209.134L503.121 206.673L501.715 204.1C502.753 203.345 503.703 202.477 504.549 201.512L507.129 203.089L509.821 198.694L507.322 197.17C507.844 195.995 508.231 194.765 508.475 193.504L511.501 193.585L511.635 188.432L508.705 188.358C508.569 187.092 508.295 185.846 507.887 184.64L510.535 183.197L508.073 178.669L505.5 180.074C504.749 179.034 503.881 178.083 502.913 177.241L504.497 174.653L500.124 171.954L498.6 174.453C497.429 173.927 496.201 173.538 494.941 173.293L494.978 170.266ZM491.26 202.59C488.808 202.529 486.429 201.743 484.424 200.329C482.419 198.916 480.877 196.94 479.995 194.651C479.113 192.362 478.93 189.863 479.468 187.469C480.006 185.076 481.242 182.896 483.02 181.205C484.797 179.514 487.036 178.388 489.453 177.97C491.87 177.551 494.357 177.859 496.599 178.853C498.842 179.848 500.739 181.486 502.05 183.559C503.362 185.632 504.03 188.047 503.969 190.499C503.885 193.787 502.499 196.908 500.116 199.175C497.734 201.442 494.548 202.67 491.26 202.59Z" stroke="#7FADF6" stroke-linecap="round" stroke-linejoin="round"></path><path opacity="0.2" d="M480.426 131.778L475.28 131.651L475.206 134.574C473.94 134.712 472.693 134.988 471.488 135.399L470.001 132.744L465.48 135.206L466.878 137.779C465.842 138.536 464.892 139.403 464.045 140.366L461.457 138.79L458.772 143.185L461.263 144.709C460.745 145.882 460.358 147.109 460.111 148.368L457.084 148.293L456.958 153.446L459.88 153.513C460.016 154.792 460.293 156.051 460.706 157.268L458.051 158.711L460.512 163.232L463.085 161.834C463.84 162.871 464.708 163.822 465.673 164.667L464.097 167.248L468.491 169.939L469.978 167.441C471.15 167.963 472.378 168.349 473.637 168.594L473.563 171.62L478.716 171.754L478.79 168.824C480.056 168.689 481.304 168.412 482.508 167.999L483.951 170.653L488.472 168.192L487.156 165.656C488.193 164.901 489.143 164.033 489.989 163.069L492.569 164.645L495.261 160.25L492.762 158.726C493.285 157.554 493.672 156.327 493.915 155.067L496.941 155.142L497.075 149.996L494.146 149.922C494.012 148.655 493.735 147.408 493.32 146.204L495.975 144.754L493.513 140.233L490.941 141.631C490.186 140.593 489.318 139.643 488.353 138.797L489.929 136.217L485.535 133.533L484.047 136.024C482.875 135.504 481.648 135.118 480.389 134.871L480.426 131.778ZM476.708 164.095C474.255 164.034 471.876 163.247 469.871 161.833C467.865 160.419 466.324 158.443 465.443 156.153C464.561 153.864 464.378 151.364 464.917 148.971C465.456 146.577 466.692 144.397 468.47 142.707C470.248 141.016 472.488 139.891 474.905 139.473C477.323 139.055 479.81 139.364 482.052 140.36C484.294 141.356 486.191 142.995 487.502 145.069C488.812 147.142 489.479 149.559 489.416 152.011C489.332 155.298 487.947 158.418 485.564 160.684C483.181 162.95 479.995 164.177 476.708 164.095Z" stroke="#7FADF6" stroke-linecap="round" stroke-linejoin="round"></path><path opacity="0.2" d="M229.78 83.8601V78.6548H226.85C226.685 77.3853 226.378 76.1382 225.936 74.9368L228.553 73.4496L225.973 68.988L223.437 70.4752C222.655 69.4594 221.765 68.5318 220.782 67.709L222.27 65.0915L217.808 62.5112L216.321 65.0469C215.124 64.5574 213.877 64.2008 212.603 63.9836V60.9199H207.45V63.8497C206.18 64.015 204.933 64.3218 203.732 64.7643L202.244 62.1469L197.783 64.7272L199.27 67.2628C198.256 68.0465 197.329 68.9364 196.504 69.9175L193.886 68.4303L191.314 72.8919L193.842 74.3791C193.352 75.5758 192.996 76.8226 192.778 78.0971H189.752V83.2503H192.682C192.847 84.5199 193.154 85.7669 193.596 86.9683L190.979 88.4555L193.559 92.9171L196.095 91.4299C196.879 92.4441 197.768 93.3714 198.75 94.1961L197.262 96.8136L201.724 99.3865L203.211 96.8582C204.408 97.3477 205.655 97.7043 206.929 97.9216V100.963H212.082V97.9885C213.352 97.8232 214.599 97.5164 215.8 97.0739L217.288 99.6913L221.749 97.1111L220.262 94.5754C221.278 93.7937 222.205 92.9035 223.028 91.9207L225.646 93.4079L228.226 88.9463L225.69 87.4591C226.18 86.2624 226.536 85.0156 226.754 83.7411L229.78 83.8601ZM197.374 80.9526C197.374 78.4994 198.101 76.1014 199.464 74.0617C200.827 72.022 202.764 70.4322 205.031 69.4934C207.297 68.5546 209.791 68.309 212.197 68.7876C214.603 69.2662 216.813 70.4475 218.548 72.1821C220.282 73.9167 221.464 76.1268 221.942 78.5328C222.421 80.9388 222.175 83.4327 221.236 85.6991C220.298 87.9655 218.708 89.9026 216.668 91.2655C214.628 92.6284 212.23 93.3559 209.777 93.3559C208.146 93.3559 206.531 93.0341 205.024 92.4089C203.517 91.7837 202.148 90.8674 200.996 89.7125C199.844 88.5576 198.931 87.1868 198.309 85.6785C197.688 84.1702 197.37 82.5542 197.374 80.9228V80.9526Z" stroke="#002E77" stroke-linecap="round" stroke-linejoin="round"></path><path opacity="0.2" d="M267.89 68.3112V63.158H264.968C264.802 61.8884 264.496 60.6413 264.053 59.44L266.663 57.9528L264.09 53.4912L261.554 54.9784C260.774 53.9589 259.881 53.031 258.892 52.2122L260.38 49.5873L255.918 47.0144L254.431 49.5426C253.236 49.0501 251.988 48.6959 250.713 48.4867V45.4082H245.567V48.338C244.297 48.5012 243.05 48.808 241.849 49.2526L240.362 46.6351L235.9 49.208L237.387 51.7437C236.381 52.5262 235.466 53.4191 234.658 54.4058L232.041 52.9186L229.461 57.3802L231.996 58.8674C231.498 60.061 231.141 61.3088 230.933 62.5854H227.892V67.7386H230.821C230.988 69.0078 231.295 70.2547 231.736 71.4566L229.119 72.9438L231.691 77.4054L234.235 75.9182C235.014 76.9271 235.904 77.845 236.889 78.6547L235.402 81.2721L239.864 83.8525L241.351 81.3168C242.545 81.8141 243.792 82.171 245.069 82.3801V85.4066H250.222V82.4768C251.492 82.315 252.74 82.0081 253.94 81.5622L255.427 84.1796L259.889 81.6068L258.402 79.0711C259.419 78.2887 260.347 77.3959 261.168 76.409L263.793 77.8962L266.366 73.4346L263.837 71.9474C264.33 70.7523 264.684 69.5049 264.893 68.2294L267.89 68.3112ZM235.491 65.4037C235.491 62.9505 236.219 60.5525 237.582 58.5128C238.944 56.4731 240.882 54.8833 243.148 53.9445C245.414 53.0058 247.908 52.7601 250.314 53.2387C252.72 53.7173 254.93 54.8986 256.665 56.6332C258.4 58.3679 259.581 60.5779 260.059 62.9839C260.538 65.3899 260.292 67.8838 259.354 70.1502C258.415 72.4166 256.825 74.3537 254.785 75.7166C252.746 77.0795 250.348 77.807 247.895 77.807C246.265 77.8079 244.652 77.4878 243.147 76.8648C241.642 76.2418 240.274 75.3282 239.122 74.1763C237.97 73.0244 237.056 71.6566 236.433 70.1514C235.81 68.6461 235.49 67.0328 235.491 65.4037Z" stroke="#002E77" stroke-linecap="round" stroke-linejoin="round"></path><g opacity="0.2"><path d="M114.366 233.183C121.635 233.183 127.528 227.29 127.528 220.021C127.528 212.752 121.635 206.859 114.366 206.859C107.097 206.859 101.204 212.752 101.204 220.021C101.204 227.29 107.097 233.183 114.366 233.183Z" stroke="#002E77" stroke-linecap="round" stroke-linejoin="round"></path><path d="M124.237 221.87C125.263 216.413 121.671 211.158 116.214 210.131C110.758 209.105 105.502 212.697 104.476 218.154C103.45 223.611 107.042 228.866 112.498 229.892C117.955 230.918 123.211 227.327 124.237 221.87Z" stroke="#002E77" stroke-linecap="round" stroke-linejoin="round"></path><path d="M133.632 229.048L126.531 225.196L125.349 227.375L132.457 231.219C132.301 231.509 132.266 231.848 132.359 232.163C132.453 232.478 132.667 232.743 132.956 232.9L146.497 240.232C146.786 240.388 147.125 240.423 147.44 240.33C147.755 240.237 148.02 240.022 148.177 239.734L149.36 237.555C149.513 237.265 149.546 236.925 149.452 236.611C149.357 236.296 149.142 236.032 148.854 235.874L135.313 228.542C135.023 228.389 134.683 228.356 134.369 228.451C134.054 228.545 133.79 228.76 133.632 229.048Z" stroke="#002E77" stroke-miterlimit="10"></path></g><path opacity="0.2" d="M335.788 68.9881C335.789 71.8328 334.947 74.614 333.368 76.9799C331.789 79.3459 329.543 81.1903 326.915 82.28C324.288 83.3696 321.396 83.6554 318.606 83.1014C315.815 82.5473 313.252 81.1782 311.24 79.1673C309.228 77.1563 307.858 74.5938 307.302 71.8039C306.747 69.014 307.031 66.122 308.119 63.4938C309.208 60.8655 311.051 58.619 313.416 57.0385C315.781 55.4579 318.562 54.6143 321.407 54.6143" stroke="black" stroke-linecap="round" stroke-linejoin="round"></path><path opacity="0.2" d="M335.788 68.9881H321.407V54.6143C325.22 54.6143 328.877 56.1284 331.574 58.8238C334.27 61.5192 335.787 65.1752 335.788 68.9881Z" stroke="black" stroke-linecap="round" stroke-linejoin="round"></path><path opacity="0.2" d="M334.301 59.0758L341.737 53.127H352.147" stroke="black" stroke-linecap="round" stroke-linejoin="round"></path><path opacity="0.2" d="M358.097 53.127H371.98" stroke="black" stroke-linecap="round" stroke-linejoin="round"></path><path opacity="0.2" d="M358.097 57.5889H371.98" stroke="black" stroke-linecap="round" stroke-linejoin="round"></path><path opacity="0.2" d="M358.097 62.0498H371.98" stroke="black" stroke-linecap="round" stroke-linejoin="round"></path><path opacity="0.2" d="M358.097 66.5117H371.98" stroke="black" stroke-linecap="round" stroke-linejoin="round"></path><g opacity="0.2"><path d="M176.077 222.251L175.542 219.634H166.128L166.671 222.251L167.147 224.586L170.344 240.202H195.478L191.805 222.251H176.077Z" stroke="#002E77" stroke-linecap="round" stroke-linejoin="round"></path><path d="M195.478 240.201L200.111 223.463H192.191" stroke="#002E77" stroke-linecap="round" stroke-linejoin="round"></path></g><g opacity="0.2"><path d="M211.368 222.251L210.833 219.634H201.419L201.954 222.251L202.438 224.586L205.635 240.202H230.769L227.088 222.251H211.368Z" stroke="#002E77" stroke-linecap="round" stroke-linejoin="round"></path><path d="M230.769 240.201L235.402 223.463H227.482" stroke="#002E77" stroke-linecap="round" stroke-linejoin="round"></path></g><path d="M264.744 180.477C264.922 180.475 265.099 180.508 265.265 180.575C265.43 180.641 265.581 180.74 265.708 180.865C265.835 180.99 265.936 181.139 266.006 181.303C266.075 181.468 266.111 181.644 266.112 181.823V190.329C266.087 190.676 265.931 191 265.676 191.236C265.422 191.473 265.087 191.604 264.74 191.604C264.393 191.604 264.058 191.473 263.804 191.236C263.549 191 263.394 190.676 263.368 190.329V181.823C263.37 181.644 263.407 181.467 263.477 181.303C263.548 181.139 263.649 180.99 263.777 180.865C263.905 180.74 264.056 180.641 264.222 180.575C264.388 180.508 264.565 180.475 264.744 180.477Z" fill="#002E77"></path><path d="M261.428 180.477C261.607 180.475 261.784 180.508 261.95 180.575C262.116 180.641 262.267 180.74 262.394 180.865C262.522 180.99 262.624 181.139 262.694 181.303C262.764 181.467 262.802 181.644 262.803 181.823V190.329C262.778 190.676 262.622 191 262.368 191.236C262.113 191.473 261.779 191.604 261.432 191.604C261.084 191.604 260.75 191.473 260.495 191.236C260.241 191 260.085 190.676 260.06 190.329V181.823C260.063 181.463 260.21 181.12 260.466 180.867C260.722 180.615 261.068 180.475 261.428 180.477Z" fill="#002E77"></path><path d="M258.163 180.477C258.341 180.475 258.518 180.508 258.684 180.575C258.849 180.641 259 180.74 259.127 180.865C259.254 180.99 259.355 181.139 259.425 181.303C259.494 181.468 259.53 181.644 259.531 181.823V190.329C259.53 190.508 259.494 190.684 259.425 190.848C259.355 191.013 259.254 191.162 259.127 191.287C259 191.412 258.849 191.511 258.684 191.577C258.518 191.644 258.341 191.677 258.163 191.675C257.985 191.677 257.808 191.644 257.642 191.577C257.477 191.511 257.326 191.412 257.199 191.287C257.072 191.162 256.971 191.013 256.901 190.848C256.832 190.684 256.796 190.508 256.795 190.329V181.823C256.796 181.644 256.832 181.468 256.901 181.303C256.971 181.139 257.072 180.99 257.199 180.865C257.326 180.74 257.477 180.641 257.642 180.575C257.808 180.508 257.985 180.475 258.163 180.477Z" fill="#002E77"></path><path d="M254.869 180.477C255.048 180.475 255.225 180.508 255.391 180.575C255.557 180.641 255.708 180.74 255.836 180.865C255.964 180.99 256.065 181.139 256.136 181.303C256.206 181.467 256.243 181.644 256.245 181.823V190.329C256.219 190.676 256.064 191 255.809 191.236C255.555 191.473 255.22 191.604 254.873 191.604C254.526 191.604 254.191 191.473 253.937 191.236C253.682 191 253.526 190.676 253.501 190.329V181.823C253.505 181.463 253.651 181.12 253.907 180.867C254.164 180.615 254.51 180.475 254.869 180.477Z" fill="#002E77"></path><path d="M251.582 180.477C251.76 180.475 251.937 180.508 252.103 180.575C252.268 180.641 252.419 180.74 252.546 180.865C252.673 180.99 252.774 181.139 252.844 181.303C252.913 181.468 252.949 181.644 252.95 181.823V190.329C252.95 190.692 252.806 191.04 252.55 191.297C252.293 191.553 251.945 191.698 251.582 191.698C251.219 191.698 250.871 191.553 250.615 191.297C250.358 191.04 250.214 190.692 250.214 190.329V181.823C250.215 181.644 250.251 181.468 250.32 181.303C250.39 181.139 250.491 180.99 250.618 180.865C250.745 180.74 250.896 180.641 251.061 180.575C251.227 180.508 251.404 180.475 251.582 180.477Z" fill="#002E77"></path><path d="M248.288 180.477C248.467 180.475 248.644 180.508 248.81 180.575C248.976 180.641 249.127 180.74 249.255 180.865C249.382 180.99 249.484 181.139 249.555 181.303C249.625 181.467 249.662 181.644 249.664 181.823V190.329C249.662 190.508 249.625 190.685 249.555 190.849C249.484 191.013 249.382 191.162 249.255 191.287C249.127 191.412 248.976 191.511 248.81 191.577C248.644 191.644 248.467 191.677 248.288 191.675C247.929 191.677 247.583 191.537 247.326 191.285C247.07 191.032 246.924 190.689 246.92 190.329V181.823C246.924 181.463 247.07 181.12 247.326 180.867C247.583 180.615 247.929 180.475 248.288 180.477Z" fill="#002E77"></path><path d="M245.002 180.477C245.18 180.475 245.357 180.508 245.523 180.575C245.688 180.641 245.839 180.74 245.966 180.865C246.093 180.99 246.194 181.139 246.264 181.303C246.333 181.468 246.369 181.644 246.37 181.823V190.329C246.37 190.692 246.226 191.04 245.97 191.297C245.713 191.553 245.365 191.698 245.002 191.698C244.639 191.698 244.291 191.553 244.035 191.297C243.778 191.04 243.634 190.692 243.634 190.329V181.823C243.635 181.644 243.671 181.468 243.74 181.303C243.81 181.139 243.911 180.99 244.038 180.865C244.165 180.74 244.316 180.641 244.481 180.575C244.647 180.508 244.824 180.475 245.002 180.477Z" fill="#002E77"></path><path d="M241.715 180.477C242.074 180.475 242.42 180.615 242.676 180.867C242.933 181.12 243.079 181.463 243.083 181.823V190.329C243.057 190.676 242.902 191 242.647 191.236C242.393 191.473 242.058 191.604 241.711 191.604C241.363 191.604 241.029 191.473 240.774 191.236C240.52 191 240.364 190.676 240.339 190.329V181.823C240.341 181.644 240.378 181.467 240.448 181.303C240.518 181.139 240.62 180.99 240.748 180.865C240.876 180.74 241.027 180.641 241.193 180.575C241.358 180.508 241.536 180.475 241.715 180.477Z" fill="#002E77"></path><path d="M238.421 180.477C238.599 180.475 238.776 180.508 238.942 180.575C239.107 180.641 239.258 180.74 239.385 180.865C239.512 180.99 239.613 181.139 239.683 181.303C239.752 181.468 239.788 181.644 239.789 181.823V190.329C239.789 190.692 239.645 191.04 239.388 191.297C239.132 191.553 238.784 191.698 238.421 191.698C238.058 191.698 237.71 191.553 237.453 191.297C237.197 191.04 237.053 190.692 237.053 190.329V181.823C237.054 181.644 237.09 181.468 237.159 181.303C237.229 181.139 237.33 180.99 237.457 180.865C237.584 180.74 237.735 180.641 237.9 180.575C238.066 180.508 238.243 180.475 238.421 180.477Z" fill="#002E77"></path><path d="M235.134 180.477C235.494 180.475 235.84 180.615 236.096 180.867C236.353 181.12 236.499 181.463 236.503 181.823V190.329C236.477 190.676 236.322 191 236.067 191.236C235.813 191.473 235.478 191.604 235.131 191.604C234.783 191.604 234.449 191.473 234.194 191.236C233.94 191 233.784 190.676 233.759 190.329V181.823C233.761 181.644 233.798 181.467 233.868 181.303C233.938 181.139 234.04 180.99 234.168 180.865C234.296 180.74 234.447 180.641 234.613 180.575C234.778 180.508 234.956 180.475 235.134 180.477Z" fill="#002E77"></path><path d="M231.84 180.477C232.018 180.475 232.195 180.508 232.361 180.575C232.526 180.641 232.677 180.74 232.804 180.865C232.931 180.99 233.032 181.139 233.102 181.303C233.171 181.468 233.207 181.644 233.208 181.823V190.329C233.208 190.692 233.064 191.04 232.807 191.297C232.551 191.553 232.203 191.698 231.84 191.698C231.477 191.698 231.129 191.553 230.872 191.297C230.616 191.04 230.472 190.692 230.472 190.329V181.823C230.473 181.644 230.509 181.468 230.578 181.303C230.648 181.139 230.749 180.99 230.876 180.865C231.003 180.74 231.154 180.641 231.319 180.575C231.485 180.508 231.662 180.475 231.84 180.477Z" fill="#002E77"></path><path d="M229.49 180.477C229.454 180.606 229.454 180.742 229.49 180.871C229.616 180.995 229.717 181.143 229.786 181.307C229.854 181.47 229.89 181.645 229.891 181.822V190.329C229.89 190.507 229.854 190.682 229.786 190.845C229.717 191.009 229.616 191.157 229.49 191.281C228.896 191.562 228.243 191.698 227.586 191.675C226.04 191.675 225.058 191.073 225.393 190.329L228.902 181.822C229.131 181.389 229.328 180.939 229.49 180.477Z" fill="#002E77"></path><path d="M229.49 180.477C229.227 180.908 228.996 181.358 228.799 181.822L224.464 190.329C224.114 191.073 222.582 191.675 221.036 191.675C219.489 191.675 218.857 191.073 219.638 190.329L228.145 181.822L229.119 180.871C229.364 180.625 229.49 180.477 229.49 180.477Z" fill="#002E77"></path><path d="M229.49 180.477C229.35 180.589 229.219 180.711 229.096 180.841L228.144 181.822L219.637 190.329C218.893 191.073 218.291 190.456 218.291 188.842C218.291 187.228 218.893 185.704 219.637 185.369L228.144 181.116C228.608 180.937 229.058 180.724 229.49 180.477Z" fill="#002E77"></path><path d="M229.49 180.476C229.029 180.622 228.579 180.801 228.144 181.012L219.637 184.41C218.893 184.737 218.291 183.726 218.291 182.142C218.29 181.775 218.325 181.409 218.395 181.049C218.428 180.888 218.47 180.729 218.522 180.573C218.534 180.516 218.559 180.462 218.596 180.417L218.685 180.32C218.808 180.191 218.956 180.089 219.119 180.019C219.283 179.948 219.459 179.912 219.637 179.911H228.144C228.322 179.912 228.498 179.948 228.661 180.019C228.825 180.089 228.973 180.191 229.096 180.32L229.177 180.417C229.177 180.461 229.229 180.491 229.259 180.484H229.49V180.476Z" fill="#002E77"></path><path d="M229.49 177.948C229.494 178.129 229.462 178.308 229.397 178.476C229.331 178.644 229.233 178.797 229.108 178.927C228.983 179.057 228.833 179.161 228.668 179.233C228.502 179.305 228.324 179.343 228.144 179.346H219.637C219.283 179.321 218.952 179.162 218.71 178.902C218.468 178.642 218.334 178.3 218.334 177.945C218.334 177.59 218.468 177.248 218.71 176.988C218.952 176.728 219.283 176.569 219.637 176.543H228.144C228.325 176.547 228.503 176.586 228.668 176.659C228.834 176.732 228.983 176.836 229.108 176.967C229.233 177.097 229.331 177.251 229.397 177.42C229.462 177.588 229.494 177.768 229.49 177.948Z" fill="#002E77"></path><path d="M229.49 174.58C229.494 174.76 229.462 174.94 229.397 175.108C229.331 175.277 229.233 175.431 229.108 175.561C228.983 175.692 228.834 175.796 228.668 175.869C228.503 175.942 228.325 175.981 228.144 175.985H219.637C219.283 175.959 218.952 175.8 218.71 175.54C218.468 175.28 218.334 174.938 218.334 174.583C218.334 174.228 218.468 173.886 218.71 173.626C218.952 173.366 219.283 173.207 219.637 173.182H228.144C228.324 173.185 228.502 173.223 228.668 173.295C228.833 173.367 228.983 173.471 229.108 173.601C229.233 173.731 229.331 173.884 229.397 174.052C229.462 174.22 229.494 174.399 229.49 174.58Z" fill="#002E77"></path><path d="M229.49 171.219C229.494 171.4 229.462 171.58 229.397 171.748C229.331 171.916 229.233 172.07 229.108 172.201C228.983 172.331 228.834 172.436 228.668 172.509C228.503 172.581 228.325 172.621 228.144 172.625H219.637C219.283 172.599 218.952 172.44 218.71 172.18C218.468 171.92 218.334 171.578 218.334 171.223C218.334 170.868 218.468 170.526 218.71 170.266C218.952 170.006 219.283 169.847 219.637 169.821H228.144C228.324 169.824 228.502 169.863 228.668 169.935C228.833 170.007 228.983 170.11 229.108 170.24C229.233 170.37 229.331 170.524 229.397 170.692C229.462 170.86 229.494 171.039 229.49 171.219Z" fill="#002E77"></path><path d="M229.49 167.888C229.494 168.068 229.462 168.247 229.397 168.415C229.331 168.583 229.233 168.737 229.108 168.867C228.983 168.997 228.833 169.101 228.668 169.172C228.502 169.244 228.324 169.283 228.144 169.286H219.637C219.283 169.26 218.952 169.101 218.71 168.841C218.468 168.581 218.334 168.239 218.334 167.884C218.334 167.529 218.468 167.187 218.71 166.927C218.952 166.667 219.283 166.508 219.637 166.482H228.144C228.325 166.486 228.503 166.526 228.668 166.598C228.834 166.671 228.983 166.776 229.108 166.906C229.233 167.037 229.331 167.191 229.397 167.359C229.462 167.527 229.494 167.707 229.49 167.888Z" fill="#002E77"></path><path d="M229.49 164.489C229.494 164.669 229.462 164.849 229.397 165.018C229.331 165.186 229.233 165.34 229.108 165.47C228.983 165.601 228.834 165.705 228.668 165.778C228.503 165.851 228.325 165.89 228.144 165.894H219.637C219.283 165.868 218.952 165.71 218.71 165.449C218.468 165.189 218.334 164.848 218.334 164.493C218.334 164.137 218.468 163.796 218.71 163.536C218.952 163.276 219.283 163.117 219.637 163.091H228.144C228.324 163.094 228.502 163.132 228.668 163.204C228.833 163.276 228.983 163.38 229.108 163.51C229.233 163.64 229.331 163.793 229.397 163.961C229.462 164.129 229.494 164.308 229.49 164.489Z" fill="#002E77"></path><path d="M229.49 161.128C229.494 161.308 229.462 161.488 229.397 161.656C229.331 161.824 229.233 161.977 229.108 162.107C228.983 162.237 228.833 162.341 228.668 162.413C228.502 162.485 228.324 162.523 228.144 162.526H219.637C219.283 162.5 218.952 162.341 218.71 162.081C218.468 161.821 218.334 161.479 218.334 161.124C218.334 160.769 218.468 160.427 218.71 160.167C218.952 159.907 219.283 159.748 219.637 159.723H228.144C228.325 159.727 228.503 159.766 228.668 159.839C228.834 159.911 228.983 160.016 229.108 160.147C229.233 160.277 229.331 160.431 229.397 160.599C229.462 160.768 229.494 160.947 229.49 161.128Z" fill="#002E77"></path><path d="M229.49 156.934C229.489 157.301 229.451 157.667 229.379 158.027C229.349 158.188 229.309 158.347 229.26 158.503C229.246 158.559 229.218 158.611 229.178 158.652C229.155 158.69 229.127 158.725 229.096 158.756C228.973 158.885 228.825 158.987 228.662 159.057C228.498 159.128 228.322 159.164 228.144 159.165H219.637C219.459 159.164 219.283 159.128 219.12 159.057C218.956 158.987 218.808 158.885 218.685 158.756L218.596 158.652C218.596 158.615 218.544 158.585 218.522 158.592H218.299C218.763 158.454 219.213 158.275 219.645 158.057L228.152 154.666C228.888 154.332 229.49 155.35 229.49 156.934Z" fill="#002E77"></path><path d="M229.49 150.205C229.49 151.789 228.887 153.343 228.144 153.678L219.637 157.924C219.175 158.119 218.726 158.343 218.291 158.593C218.291 158.593 218.44 158.474 218.685 158.228L219.637 157.254L228.144 148.748C228.887 147.967 229.49 148.621 229.49 150.205Z" fill="#002E77"></path><path d="M226.835 147.401C228.322 147.401 228.917 148.004 228.144 148.747L219.637 157.254L218.655 158.221C218.527 158.343 218.405 158.472 218.291 158.607C218.557 158.178 218.793 157.731 218.997 157.269L223.459 148.762C223.838 148.004 225.348 147.401 226.835 147.401Z" fill="#002E77"></path><path d="M220.485 147.401C221.972 147.401 222.901 148.003 222.552 148.747L218.834 157.254C218.611 157.687 218.418 158.134 218.254 158.592C218.264 158.463 218.264 158.334 218.254 158.205V158.005C218.205 157.932 218.162 157.855 218.128 157.774C218.058 157.609 218.023 157.432 218.023 157.254V148.747C218.023 148.566 218.059 148.386 218.128 148.219C218.161 148.14 218.203 148.065 218.254 147.996C218.35 147.917 218.455 147.85 218.566 147.795C219.166 147.513 219.823 147.378 220.485 147.401Z" fill="#002E77"></path><path d="M216.209 147.401C216.563 147.405 216.901 147.549 217.149 147.801C217.397 148.053 217.535 148.394 217.533 148.747V157.254C217.533 157.605 217.394 157.942 217.145 158.19C216.897 158.438 216.56 158.578 216.209 158.578C215.858 158.578 215.522 158.438 215.273 158.19C215.025 157.942 214.886 157.605 214.886 157.254V148.747C214.884 148.394 215.022 148.053 215.27 147.801C215.518 147.549 215.856 147.405 216.209 147.401Z" fill="#002E77"></path><path d="M213.035 147.401C213.388 147.405 213.726 147.549 213.974 147.801C214.222 148.053 214.36 148.394 214.358 148.747V157.254C214.358 157.605 214.219 157.942 213.971 158.19C213.722 158.438 213.386 158.578 213.035 158.578C212.684 158.578 212.347 158.438 212.099 158.19C211.85 157.942 211.711 157.605 211.711 157.254V148.747C211.709 148.572 211.742 148.398 211.807 148.235C211.873 148.072 211.97 147.924 212.093 147.799C212.216 147.674 212.362 147.574 212.524 147.506C212.686 147.438 212.859 147.402 213.035 147.401Z" fill="#263238"></path><path d="M209.859 147.401C210.213 147.405 210.551 147.549 210.799 147.801C211.047 148.053 211.185 148.394 211.183 148.747V157.254C211.184 157.429 211.151 157.602 211.085 157.764C211.019 157.926 210.921 158.073 210.798 158.197C210.676 158.322 210.529 158.421 210.368 158.488C210.207 158.556 210.034 158.592 209.859 158.593C209.684 158.593 209.51 158.558 209.348 158.491C209.186 158.423 209.039 158.324 208.916 158.2C208.792 158.076 208.694 157.928 208.628 157.766C208.561 157.603 208.527 157.43 208.528 157.254V148.747C208.527 148.572 208.561 148.397 208.627 148.235C208.694 148.072 208.792 147.924 208.915 147.799C209.039 147.674 209.186 147.574 209.348 147.506C209.51 147.438 209.684 147.402 209.859 147.401Z" fill="#263238"></path><path d="M207.605 163.776V142.412C209.808 142.412 211.921 143.287 213.479 144.845C215.036 146.403 215.912 148.515 215.912 150.718V155.47C215.912 156.561 215.697 157.641 215.279 158.648C214.862 159.656 214.25 160.572 213.479 161.343C212.707 162.114 211.792 162.726 210.784 163.144C209.776 163.561 208.696 163.776 207.605 163.776Z" fill="white" stroke="#263238" stroke-linecap="round" stroke-linejoin="round"></path><path d="M186.242 184.38L208.461 173.412C209.51 172.894 210.393 172.094 211.011 171.1C211.629 170.107 211.956 168.96 211.956 167.79V138.79C211.956 137.62 211.629 136.474 211.011 135.48C210.393 134.487 209.51 133.686 208.461 133.168L186.242 122.2V184.38Z" fill="white" stroke="#263238" stroke-linecap="round" stroke-linejoin="round"></path><path d="M227.787 196.583H244.206" stroke="#263238" stroke-linecap="round" stroke-linejoin="round"></path><path d="M224.508 199.461H231.074" stroke="#263238" stroke-linecap="round" stroke-linejoin="round"></path><path d="M234.77 154.079V170.089" stroke="#263238" stroke-linecap="round" stroke-linejoin="round"></path><path d="M231.892 159.827V149.981" stroke="#263238" stroke-linecap="round" stroke-linejoin="round"></path><path d="M213.02 179.934V188.143" stroke="#263238" stroke-linecap="round" stroke-linejoin="round"></path><path d="M215.89 177.063V184.455" stroke="#263238" stroke-linecap="round" stroke-linejoin="round"></path><path d="M357.085 122.163H361.353" stroke="#002E77" stroke-width="9" stroke-linecap="round" stroke-linejoin="round"></path><path d="M324.329 173.434H341.417V122.163H357.085" stroke="#0045B2" stroke-width="4" stroke-linecap="round" stroke-linejoin="round"></path><path d="M357.085 225.658H362.305" stroke="#002E77" stroke-width="9" stroke-linecap="round" stroke-linejoin="round"></path><path d="M321.005 189.103H340.941V225.658H357.084" stroke="#0045B2" stroke-width="4" stroke-linecap="round" stroke-linejoin="round"></path><path d="M259.465 124.899H255.204V163.5" stroke="#0045B2" stroke-width="4" stroke-linecap="round" stroke-linejoin="round"></path><path d="M262.781 124.899H259.465" stroke="#002E77" stroke-width="7" stroke-linecap="round" stroke-linejoin="round"></path><path d="M300.876 139.385H281.401V160.25H300.876V139.385Z" fill="#002E77" stroke="#263238" stroke-linecap="round" stroke-linejoin="round"></path><path d="M318.833 110.526H299.708V129.31H318.833V110.526Z" fill="#002E77" stroke="#263238" stroke-linecap="round" stroke-linejoin="round"></path><path d="M311.182 129.302H319.652C317.636 134.649 314.136 139.311 309.564 142.74C304.992 146.169 299.536 148.223 293.838 148.661C288.14 149.099 282.435 147.902 277.392 145.212C272.35 142.522 268.179 138.45 265.369 133.474C262.72 128.815 261.379 123.528 261.488 118.17C261.488 117.702 261.488 117.226 261.525 116.757C261.993 109.555 265.035 102.761 270.096 97.6161C275.158 92.4707 281.9 89.3167 289.093 88.7296C296.287 88.1425 303.452 90.1616 309.28 94.4183C315.109 98.675 319.212 104.886 320.842 111.916H311.175C310.033 111.916 308.903 112.141 307.848 112.578C306.794 113.015 305.836 113.655 305.028 114.463C304.221 115.27 303.581 116.228 303.144 117.283C302.707 118.337 302.482 119.468 302.482 120.609C302.482 121.751 302.707 122.881 303.144 123.936C303.581 124.99 304.221 125.949 305.028 126.756C305.836 127.563 306.794 128.203 307.848 128.64C308.903 129.077 310.033 129.302 311.175 129.302H311.182Z" fill="#215DE4" stroke="#263238" stroke-linecap="round" stroke-linejoin="round"></path><path d="M293.797 119.91H302.49" stroke="#263238" stroke-linecap="round" stroke-linejoin="round"></path><path d="M286.837 90.0029V147.387" stroke="#263238" stroke-linecap="round" stroke-linejoin="round"></path><path d="M286.145 127.562C290.371 127.562 293.797 124.136 293.797 119.91C293.797 115.685 290.371 112.259 286.145 112.259C281.919 112.259 278.493 115.685 278.493 119.91C278.493 124.136 281.919 127.562 286.145 127.562Z" fill="#002E77" stroke="#263238" stroke-linecap="round" stroke-linejoin="round"></path><path d="M289.968 119.911C289.968 119.153 289.743 118.412 289.322 117.782C288.901 117.152 288.302 116.661 287.602 116.372C286.902 116.082 286.131 116.007 285.388 116.155C284.645 116.304 283.963 116.669 283.428 117.205C282.892 117.742 282.528 118.425 282.381 119.168C282.234 119.911 282.311 120.682 282.602 121.381C282.893 122.081 283.385 122.678 284.016 123.098C284.647 123.518 285.388 123.742 286.146 123.74C286.648 123.74 287.146 123.641 287.61 123.449C288.074 123.256 288.496 122.974 288.851 122.618C289.206 122.262 289.487 121.84 289.679 121.376C289.871 120.911 289.969 120.413 289.968 119.911Z" fill="white" stroke="#263238" stroke-linecap="round" stroke-linejoin="round"></path><path d="M311.882 123.732C313.993 123.732 315.704 122.021 315.704 119.91C315.704 117.799 313.993 116.088 311.882 116.088C309.771 116.088 308.06 117.799 308.06 119.91C308.06 122.021 309.771 123.732 311.882 123.732Z" fill="#7FADF6"></path><path d="M271.184 118.17V133.473H265.347C262.698 128.815 261.357 123.528 261.465 118.17H271.184Z" fill="#002E77" stroke="#263238" stroke-linecap="round" stroke-linejoin="round"></path><path d="M291.143 220.312V265.485" stroke="#263238" stroke-width="3" stroke-linecap="round" stroke-linejoin="round"></path><path d="M291.142 251.55C297.557 251.55 302.757 246.35 302.757 239.935C302.757 233.521 297.557 228.32 291.142 228.32C284.728 228.32 279.527 233.521 279.527 239.935C279.527 246.35 284.728 251.55 291.142 251.55Z" fill="#215DE4" stroke="#263238" stroke-linecap="round" stroke-linejoin="round"></path><path d="M291.142 268.742C294.223 268.742 296.719 266.245 296.719 263.165C296.719 260.085 294.223 257.588 291.142 257.588C288.062 257.588 285.565 260.085 285.565 263.165C285.565 266.245 288.062 268.742 291.142 268.742Z" fill="#215DE4" stroke="#263238" stroke-linecap="round" stroke-linejoin="round"></path><path d="M332.747 168.096L319.92 206.324C316.343 216.973 305.501 224.245 293.209 224.245H289.068C276.776 224.245 265.934 216.973 262.365 206.324L249.53 168.096C247.582 162.288 252.386 156.429 259.086 156.429H323.191C329.899 156.429 334.695 162.288 332.747 168.096Z" fill="#215DE4" stroke="#263238" stroke-linecap="round" stroke-linejoin="round"></path><path d="M327.385 171.68C325.832 171.257 324.175 171.441 322.752 172.195C321.33 172.949 320.248 174.217 319.726 175.74L309.36 206.019C308.855 207.495 308.913 209.105 309.523 210.54C310.132 211.976 311.25 213.136 312.662 213.797L314.893 214.861C317.123 212.385 318.826 209.48 319.897 206.324L331.17 172.721L327.385 171.68Z" fill="#0045B2" stroke="#263238" stroke-linecap="round" stroke-linejoin="round"></path><path d="M262.238 175.74C261.717 174.217 260.635 172.949 259.212 172.195C257.789 171.441 256.133 171.257 254.579 171.68L251.055 172.639L262.365 206.324C263.416 209.437 265.085 212.305 267.273 214.757L269.303 213.797C270.71 213.13 271.821 211.969 272.426 210.534C273.031 209.099 273.087 207.492 272.582 206.019L262.238 175.74Z" fill="#0045B2" stroke="#002E77" stroke-linecap="round" stroke-linejoin="round"></path><path d="M311.249 156.429C311.097 157.841 310.428 159.147 309.371 160.095C308.314 161.044 306.944 161.568 305.524 161.567H275.779C274.359 161.568 272.989 161.044 271.932 160.095C270.875 159.147 270.206 157.841 270.054 156.429H311.249Z" fill="#0045B2" stroke="#263238" stroke-linecap="round" stroke-linejoin="round"></path><path d="M291.172 224.029V161.566" stroke="#263238" stroke-linecap="round" stroke-linejoin="round"></path><path d="M308.067 169.003H274.218C272.14 169.003 270.455 170.688 270.455 172.766V188.188C270.455 190.266 272.14 191.951 274.218 191.951H308.067C310.145 191.951 311.829 190.266 311.829 188.188V172.766C311.829 170.688 310.145 169.003 308.067 169.003Z" fill="#7FADF6" stroke="#263238" stroke-linecap="round" stroke-linejoin="round"></path><path d="M291.142 203.58C293.606 203.58 295.604 201.583 295.604 199.119C295.604 196.655 293.606 194.657 291.142 194.657C288.678 194.657 286.681 196.655 286.681 199.119C286.681 201.583 288.678 203.58 291.142 203.58Z" fill="#002E77" stroke="#263238" stroke-linecap="round" stroke-linejoin="round"></path><path d="M291.142 200.978C292.169 200.978 293.001 200.145 293.001 199.119C293.001 198.092 292.169 197.26 291.142 197.26C290.116 197.26 289.283 198.092 289.283 199.119C289.283 200.145 290.116 200.978 291.142 200.978Z" fill="#F2F7FE"></path><path d="M472.083 76.625H369.221C363.882 76.625 359.554 80.953 359.554 86.2918V157.246C359.554 162.585 363.882 166.913 369.221 166.913H472.083C477.422 166.913 481.75 162.585 481.75 157.246V86.2918C481.75 80.953 477.422 76.625 472.083 76.625Z" fill="#002E77" stroke="#263238" stroke-linecap="round" stroke-linejoin="round"></path><path d="M469.718 82.1348H371.585C367.782 82.1348 364.699 85.2176 364.699 89.0205V154.51C364.699 158.312 367.782 161.395 371.585 161.395H469.718C473.521 161.395 476.604 158.312 476.604 154.51V89.0205C476.604 85.2176 473.521 82.1348 469.718 82.1348Z" fill="white" stroke="#263238" stroke-linecap="round" stroke-linejoin="round"></path><path d="M467.904 95.3789H379.178V98.6136H467.904V95.3789Z" fill="#E5EEFD"></path><path d="M467.904 102.993H379.178V106.228H467.904V102.993Z" fill="#E5EEFD"></path><path d="M467.904 110.607H379.178V113.842H467.904V110.607Z" fill="#E5EEFD"></path><path d="M467.904 118.229H379.178V121.464H467.904V118.229Z" fill="#E5EEFD"></path><path d="M467.904 125.844H379.178V129.078H467.904V125.844Z" fill="#E5EEFD"></path><path d="M467.904 133.459H379.178V136.694H467.904V133.459Z" fill="#E5EEFD"></path><path d="M467.904 141.073H379.178V144.308H467.904V141.073Z" fill="#E5EEFD"></path><path d="M388.391 114.363H379.75V150.056H388.391V114.363Z" fill="#0045B2"></path><path d="M401.605 124.372H392.964V150.056H401.605V124.372Z" fill="#7FADF6"></path><path d="M414.818 118.147H406.178V150.055H414.818V118.147Z" fill="#0045B2"></path><path d="M428.039 131.049H419.398V150.063H428.039V131.049Z" fill="#7FADF6"></path><path d="M441.253 118.817H432.612V150.064H441.253V118.817Z" fill="#0045B2"></path><path d="M454.475 110.585H445.834V150.055H454.475V110.585Z" fill="#7FADF6"></path><path d="M467.689 105.47H459.048V150.056H467.689V105.47Z" fill="#0045B2"></path><path d="M372.634 95.9814H375.586" stroke="#263238" stroke-linecap="round" stroke-linejoin="round"></path><path d="M372.634 100.22H375.586" stroke="#263238" stroke-linecap="round" stroke-linejoin="round"></path><path d="M372.634 104.466H375.586" stroke="#263238" stroke-linecap="round" stroke-linejoin="round"></path><path d="M372.634 108.712H375.586" stroke="#263238" stroke-linecap="round" stroke-linejoin="round"></path><path d="M372.634 112.957H375.586" stroke="#263238" stroke-linecap="round" stroke-linejoin="round"></path><path d="M372.634 117.196H375.586" stroke="#263238" stroke-linecap="round" stroke-linejoin="round"></path><path d="M372.634 121.442H375.586" stroke="#263238" stroke-linecap="round" stroke-linejoin="round"></path><path d="M372.634 125.688H375.586" stroke="#263238" stroke-linecap="round" stroke-linejoin="round"></path><path d="M372.634 129.934H375.586" stroke="#263238" stroke-linecap="round" stroke-linejoin="round"></path><path d="M372.634 134.173H375.586" stroke="#263238" stroke-linecap="round" stroke-linejoin="round"></path><path d="M372.634 138.418H375.586" stroke="#263238" stroke-linecap="round" stroke-linejoin="round"></path><path d="M372.634 142.664H375.586" stroke="#263238" stroke-linecap="round" stroke-linejoin="round"></path><path d="M372.634 146.91H375.586" stroke="#263238" stroke-linecap="round" stroke-linejoin="round"></path><path d="M372.634 151.148H375.586" stroke="#263238" stroke-linecap="round" stroke-linejoin="round"></path><path d="M467.934 152.368V155.32" stroke="#263238" stroke-linecap="round" stroke-linejoin="round"></path><path d="M460.885 152.368V155.32" stroke="#263238" stroke-linecap="round" stroke-linejoin="round"></path><path d="M453.843 152.368V155.32" stroke="#263238" stroke-linecap="round" stroke-linejoin="round"></path><path d="M446.793 152.368V155.32" stroke="#263238" stroke-linecap="round" stroke-linejoin="round"></path><path d="M439.744 152.368V155.32" stroke="#263238" stroke-linecap="round" stroke-linejoin="round"></path><path d="M432.694 152.368V155.32" stroke="#263238" stroke-linecap="round" stroke-linejoin="round"></path><path d="M425.652 152.368V155.32" stroke="#263238" stroke-linecap="round" stroke-linejoin="round"></path><path d="M418.604 152.368V155.32" stroke="#263238" stroke-linecap="round" stroke-linejoin="round"></path><path d="M411.554 152.368V155.32" stroke="#263238" stroke-linecap="round" stroke-linejoin="round"></path><path d="M404.512 152.368V155.32" stroke="#263238" stroke-linecap="round" stroke-linejoin="round"></path><path d="M397.463 152.368V155.32" stroke="#263238" stroke-linecap="round" stroke-linejoin="round"></path><path d="M390.413 152.368V155.32" stroke="#263238" stroke-linecap="round" stroke-linejoin="round"></path><path d="M383.371 152.368V155.32" stroke="#263238" stroke-linecap="round" stroke-linejoin="round"></path><path d="M376.322 152.368V155.32" stroke="#263238" stroke-linecap="round" stroke-linejoin="round"></path><path d="M430.166 88.0098H410.401V91.2519H430.166V88.0098Z" fill="#263238"></path><path d="M472.083 177.866H369.221C363.882 177.866 359.554 182.194 359.554 187.533V258.488C359.554 263.826 363.882 268.154 369.221 268.154H472.083C477.422 268.154 481.75 263.826 481.75 258.488V187.533C481.75 182.194 477.422 177.866 472.083 177.866Z" fill="#002E77" stroke="#263238" stroke-linecap="round" stroke-linejoin="round"></path><path d="M469.718 183.384H371.585C367.782 183.384 364.699 186.467 364.699 190.27V255.759C364.699 259.562 367.782 262.644 371.585 262.644H469.718C473.521 262.644 476.604 259.562 476.604 255.759V190.27C476.604 186.467 473.521 183.384 469.718 183.384Z" fill="white" stroke="#263238" stroke-linecap="round" stroke-linejoin="round"></path><path d="M401.865 254.978C394.384 254.978 387.171 252.194 381.63 247.169C376.088 242.143 372.615 235.236 371.886 227.791C371.157 220.346 373.224 212.896 377.685 206.891C382.146 200.886 388.682 196.755 396.02 195.304L397.448 202.606C394.398 203.204 391.504 204.422 388.944 206.186C386.385 207.949 384.215 210.219 382.569 212.855C380.924 215.492 379.837 218.438 379.377 221.512C378.917 224.585 379.094 227.721 379.896 230.723C380.698 233.726 382.108 236.532 384.039 238.967C385.97 241.402 388.381 243.414 391.122 244.879C393.864 246.343 396.876 247.229 399.974 247.482C403.072 247.734 406.188 247.347 409.13 246.345L411.517 253.387C408.408 254.441 405.148 254.979 401.865 254.978Z" fill="#0045B2"></path><path d="M423.198 217.144C421.348 212.059 417.744 207.801 413.034 205.136C408.325 202.471 402.819 201.574 397.507 202.607L396.02 195.304C403.082 193.93 410.404 195.122 416.665 198.667C422.927 202.211 427.717 207.875 430.173 214.638L423.198 217.144Z" fill="#7FADF6"></path><path d="M411.539 253.401L409.152 246.359C412.008 245.387 414.642 243.856 416.899 241.855C419.157 239.854 420.993 237.424 422.301 234.705C423.608 231.987 424.361 229.035 424.516 226.022C424.67 223.009 424.222 219.996 423.199 217.158L430.196 214.63C431.554 218.398 432.147 222.399 431.941 226.399C431.735 230.399 430.734 234.318 428.998 237.928C427.261 241.537 424.823 244.764 421.825 247.421C418.828 250.078 415.331 252.111 411.539 253.401Z" fill="#BFD6FA"></path><path d="M450.444 201.646H442.086V210.005H450.444V201.646Z" fill="#0045B2"></path><path d="M450.444 222.104H442.086V230.462H450.444V222.104Z" fill="#7FADF6"></path><path d="M450.444 242.567H442.086V250.925H450.444V242.567Z" fill="#BFD6FA"></path><path d="M454.847 206.049H468.923" stroke="#263238" stroke-linecap="round" stroke-linejoin="round"></path><path d="M454.847 225.844H468.923" stroke="#263238" stroke-linecap="round" stroke-linejoin="round"></path><path d="M394.124 225.405H408.208" stroke="#263238" stroke-linecap="round" stroke-linejoin="round"></path><path d="M454.847 246.523H468.923" stroke="#263238" stroke-linecap="round" stroke-linejoin="round"></path><path d="M285.632 187.489H282.666L287.185 174.398H290.752L295.264 187.489H292.299L289.019 177.39H288.917L285.632 187.489ZM285.446 182.344H292.452V184.504H285.446V182.344ZM299.608 174.398V187.489H296.84V174.398H299.608Z" fill="white"></path></g><defs><clipPath id="clip0_7918_971"><rect width="512" height="293.939" fill="white" transform="translate(0 24)"></rect></clipPath></defs></svg>